<?xml version="1.0" standalone="no"?>
<!DOCTYPE svg PUBLIC "-//W3C//DTD SVG 20010904//EN"
 "http://www.w3.org/TR/2001/REC-SVG-20010904/DTD/svg10.dtd">
<svg version="1.0" xmlns="http://www.w3.org/2000/svg"
 width="512.000000pt" height="512.000000pt" viewBox="0 0 512.000000 512.000000"
 preserveAspectRatio="xMidYMid meet">
<metadata>
Created by potrace 1.14, written by Peter Selinger 2001-2017
</metadata>
<g transform="translate(0.000000,512.000000) scale(0.100000,-0.100000)"
fill="#000000" stroke="none">
<path d="M2687 4904 c-1 -1 -34 -5 -73 -8 -39 -4 -82 -9 -95 -11 -13 -3 -40
-7 -61 -10 -21 -3 -77 -16 -125 -29 -92 -23 -89 -23 -208 9 -176 48 -456 51
-627 5 -115 -30 -117 -31 -197 -70 -132 -65 -273 -183 -356 -301 -11 -15 -31
-31 -45 -34 -69 -17 -213 -98 -264 -149 -174 -176 -136 -416 83 -513 69 -31
218 -70 294 -78 32 -4 68 -9 80 -11 12 -3 191 -8 397 -10 324 -4 496 -9 522
-13 3 0 9 -16 13 -33 20 -103 72 -206 140 -283 52 -58 84 -127 91 -193 6 -54
5 -59 -24 -90 l-30 -32 -38 43 c-109 121 -296 221 -488 261 -72 14 -174 13
-275 -4 -71 -12 -148 -8 -206 10 -128 39 -309 42 -470 6 -92 -21 -299 -115
-354 -161 -96 -82 -94 -232 5 -313 26 -22 33 -32 21 -32 -68 0 -209 -77 -237
-131 -34 -62 -16 -161 38 -212 63 -60 66 -61 542 -63 239 -1 445 -3 458 -3 15
-1 26 -10 32 -28 110 -302 323 -531 601 -644 125 -51 297 -87 454 -95 39 -1
72 -3 74 -3 27 -4 -333 -277 -436 -330 -15 -8 -138 -11 -397 -11 l-376 0 0
-49 c0 -111 68 -197 177 -225 l47 -12 37 -91 c20 -50 49 -131 64 -180 31 -104
28 -90 54 -227 12 -60 30 -128 40 -151 41 -93 134 -164 237 -182 27 -5 411 -8
854 -7 799 1 805 1 861 23 98 38 186 145 203 249 4 17 8 47 11 65 19 115 57
250 112 388 l45 116 51 12 c99 23 164 102 173 210 l4 61 -386 0 -387 0 51 53
c90 92 136 167 178 288 41 116 44 287 8 411 -7 25 105 132 227 218 125 87 178
137 228 210 40 58 81 163 81 205 0 14 3 25 8 26 4 0 129 2 277 4 276 3 318 8
418 50 46 19 113 78 134 119 22 42 23 151 1 191 -9 17 -37 51 -63 75 -26 25
-59 70 -75 100 -53 102 -138 163 -285 200 -104 27 -194 34 -435 34 -233 0
-292 -5 -371 -33 -102 -35 -149 -65 -238 -150 -31 -29 -90 -77 -131 -107 -82
-59 -104 -83 -125 -145 -38 -106 6 -233 101 -295 47 -31 124 -41 312 -40 209
1 202 5 158 -90 -33 -70 -84 -125 -148 -157 -65 -32 -89 -37 -200 -42 l-87 -4
-58 45 c-87 68 -216 146 -339 203 -220 104 -238 115 -257 149 -52 90 -23 165
114 292 50 47 108 101 129 120 37 35 110 137 110 153 0 5 6 23 14 40 20 44 34
94 41 147 l7 45 76 1 c67 1 87 5 153 37 102 49 141 56 315 56 174 1 234 6 365
32 263 52 449 180 449 310 0 50 -37 104 -91 134 -30 16 -70 53 -107 98 -143
176 -319 276 -572 322 -149 27 -225 51 -370 120 -212 100 -356 135 -578 139
-46 0 -84 0 -85 0z m1 -1238 c107 -3 197 -7 200 -11 14 -14 -56 -124 -121
-188 -68 -68 -68 -68 -115 -63 -113 13 -206 58 -272 133 -42 48 -62 80 -74
120 -7 21 -5 21 91 17 54 -2 185 -6 291 -8z m-487 -1144 c82 -92 228 -173 426
-237 104 -34 123 -43 123 -61 0 -25 -39 -144 -48 -145 -39 -7 -446 -23 -542
-21 -144 2 -300 56 -408 142 -45 36 -168 178 -160 185 2 1 46 5 98 9 129 9
162 14 251 42 70 22 188 87 203 113 11 18 22 13 57 -27z"/>
</g>
</svg>
